<svg xmlns="http://www.w3.org/2000/svg" width="70.61mm" height="77.1mm" viewBox="0 0 200.15 218.56"><title>atelier-perisset-logo-icon-weiss</title><path d="M43.21,133.88a.59.59,0,0,0,.92-.23c-.15.08-.38,0-.61-.22A1.52,1.52,0,0,1,43.21,133.88Z" fill="#fff"/><path d="M45.53,133.5a.82.82,0,0,0,.38.23c.08-.23.23-.23.31-.15.31-.38-.08-.53-.31-.76C45.53,133.13,45.76,133,45.53,133.5Z" fill="#fff"/><path d="M47.3,132.82a1.24,1.24,0,0,0-.46-1.13C46.3,132.3,46.76,132.52,47.3,132.82Z" fill="#fff"/><path d="M48.61,132.3c.31.22.55-.23.78-.53-.69-.53-1.16-.3-1.47-.91C47,131.62,48.61,131.69,48.61,132.3Z" fill="#fff"/><path d="M49.27,130.83a1.61,1.61,0,0,0-.69-.6c0,.38-.23.76.39,1A3.92,3.92,0,0,0,49.27,130.83Z" fill="#fff"/><path d="M116.52,93.4c-.15.08-.38,0-.62-.22a1.35,1.35,0,0,1-.31.45A.6.6,0,0,0,116.52,93.4Z" fill="#fff"/><path d="M117.89,93.48c.08-.23.23-.23.31-.15.31-.38-.08-.53-.31-.76-.38.31-.15.16-.38.68A.77.77,0,0,0,117.89,93.48Z" fill="#fff"/><path d="M134.32,76.24l-3,2.67-2.81,2.92-2.62,3.09-2.52,3.18L122,90c-.08,0,.15.69-.1,1-.08-.08-.23-.08-.31.15a.68.68,0,0,1-.3-.16l-.13.19c-.36-.13-.63-.17-.83-.57-.93.76.69.83.69,1.44.31.22.54-.23.77-.53a1.52,1.52,0,0,0-.36-.21l.9-.18c0,.06.11.11.16.16l.15-.22,2.2-.42,3.8-.94,3.81-.87,3.75-1.13,3.66-1.4,3.58-1.58,3.29-2.12s1.86-2.11,2-3.29a14.78,14.78,0,0,0-.31-3.5l-3-2.71a18,18,0,0,0-4-.56,13.73,13.73,0,0,0-3.81,1.36Zm7.32-.08a.8.8,0,0,1,.07.79,1,1,0,0,1-.29.37l-.49-.56C141.71,76.1,141.35,77.38,141.64,76.16Zm-8.59,6c-.36-.54.71-.6.74-.14C133.62,82.56,133.26,82,133.05,82.19Zm.87,2.54c.08-.06,0-.13-.11-.27a.73.73,0,0,1,1-.51c-.07.06,0,.13.11.27A.92.92,0,0,1,133.92,84.73Zm2.89-.24c-.24-.29-.51-.3-.73,0-.12-.27.58-.61.79-.79.19.21.38.29.52.17C137.64,84.15,137,84.23,136.81,84.49Zm-.21-1.65a1,1,0,1,1,1.07-1.75C137.48,81.86,136.74,81.87,136.6,82.84Zm3-3c-.07.9-.5,1.26-1.21,1C138.92,80.4,138.92,79.55,139.63,79.8Zm-1.2-.81a.92.92,0,0,1-1.12.7,1.07,1.07,0,0,1,.42-1.2C138.13,78.51,138.24,78.78,138.43,79Z" fill="#fff"/><path d="M119.38,92.84a1.06,1.06,0,0,0-.4-1C118.51,92.38,118.91,92.58,119.38,92.84Z" fill="#fff"/><path d="M121.41,90.24c-.27.3,0,.42.23.57A.62.62,0,0,0,121.41,90.24Z" fill="#fff"/><path d="M120.45,92.84c.15-.15.23-.3.31-.38a1.69,1.69,0,0,0-.7-.6C120.06,92.23,119.83,92.61,120.45,92.84Z" fill="#fff"/><path d="M87.71,195.72a.49.49,0,0,0,.22-.75c0,.14-.16.27-.43.34A1.31,1.31,0,0,1,87.71,195.72Z" fill="#fff"/><path d="M88.06,193.38c.06.39,0,.17.34.55a.66.66,0,0,0,.32-.17c-.13-.15-.07-.26,0-.28C88.59,193.1,88.32,193.31,88.06,193.38Z" fill="#fff"/><path d="M87.61,192.26c.22.63.58.4,1,.14A1.08,1.08,0,0,0,87.61,192.26Z" fill="#fff"/><path d="M88.7,191.93c.27.16.46.48.88.14,0-.17-.13-.29-.15-.38A1.42,1.42,0,0,0,88.7,191.93Z" fill="#fff"/><path d="M154.37,112.25l-2.48-3.69L149,105s-2.46-1.23-3.84-1.73a23.46,23.46,0,0,0-3.7-.85l-3.53-.61-3.58-.24a28.88,28.88,0,0,0-3.44-.32,24.83,24.83,0,0,0-3.14.28s-3.31-.11-4.54,0-3.88.74-3.88.74l-4.08,1.15-3.85.93-4,.54-3.71,1.45-3.56,1.81-3.56,1.72-3.84,1.59-3-4.09-.1-.6-.43-.63-.83-1-1-1.92,2.23-1.54,3-2.43,2.69-2.78,3.25-2,2.44-3,3.06-2.29L107.26,87,110,84.3l3-2.42,2.9-2.52,3.42-3.44,3.35-3.52a13.41,13.41,0,0,1,2-3c1.3-1.4,2.06-1.92,2.78-2.88a23.64,23.64,0,0,0,1.46-2.3l2.36-2.75,2.25-2.86L135,55.31a10,10,0,0,0,2.09-3.22c.68-1.82,2.05-6.58,2-8.39a9.81,9.81,0,0,0-.74-3.46l-.77-3.45-1.82-2.88-2-2.8-.31-.28-.33-.17V30.4l-.16-.33-.48-.27a34.12,34.12,0,0,0-4.05-2.68,15.25,15.25,0,0,0-4.32-1.33A21.46,21.46,0,0,0,120.6,25a18.84,18.84,0,0,0-3.45.28l-3.43.55-3.39.85-3.18,1.44L103,29.72l-3.6,2.61L96,35.23l-3,3.09L90.85,42l-2.74,3.23-1.73,2.62L84.63,50.4,83,53.13l-2,2.51L79.36,59l-1.14,3.57-1.14,3.54-1.31,3.47L75,73.25l-1.1,3.56-.66,3.66.29,3.78L73.34,88l-.56,3.78.35,3.77,1,3.65,1.09,3.61,1.34,3.45-3.24,3.07-3.29,3-3.28,3.07L64.4,117l-4.61.24.37.57,3,.23-2.06,2.58-3,2.38-3.17,2.17-2.86,2.53-2.4,2.07c.27.22.49.45.15.86a.22.22,0,0,0-.35,0,2.09,2.09,0,0,0,.62.92l.47-.68a.73.73,0,0,0-.09-.08l.76-.57c-.2.22-.12.43.33.65.23-.22.15-.38.15-.6a1,1,0,0,1-.45-.07l1.15-.87L55.19,128l3.4-2.56,3.35-2.61,3.63-2.23,2.6-2.25,2,.15,2.8.32,5.42.13,2.6.25-.19.23a27.32,27.32,0,0,0-2.74,2.12A16.12,16.12,0,0,0,76,124.21a11.16,11.16,0,0,0-2.58,2.63c-1.15,1.66-2.19,3.37-2.19,3.37l-1.12,4.13-1.74,4,.22.44v.46l0,.65-.4.64.59.8.13,3.14,1.08,3a11.79,11.79,0,0,0,.5,3.27,22.54,22.54,0,0,0,1.76,2.93l2.67,2.12,2.41,2.08,2.91,1.28,4.45.92.3,8.37.27,4.82.42,4.8.89,3.49.42,3.53.4,3a7.94,7.94,0,0,0,.25,1.71s0,0,0,0,0,0,.05,0a1.8,1.8,0,0,1,.06.22,1.18,1.18,0,0,0,.58.68c-.27.21-.41.4-.81.38.17,1,.9-.14,1.35.11.15-.06.16-.19.11-.34l.12-.45c-.16,0-.3-.09-.4-.39a1.3,1.3,0,0,1,.51,0l.49-1.95s-.15-1.3-.19-2.85a15.29,15.29,0,0,1,.57-3.68l0-3.57-.45-4.84,1-4.79.19-5.69v-1.06l.1.22,5,.33,2.37-.07,1.31-.1.85-.29.49.35.8-.84.88.39,1.61-.38,3-1.57a12.93,12.93,0,0,0,2.89-3.41,10.39,10.39,0,0,0,.87-6.56,10.52,10.52,0,0,0-2-2.92l-2.21-2.17a13,13,0,0,0-4.94-1.48L97.62,143l-1-.24-2.31.58-3.44.49-3.45.53-3.15,1,0,6.15v.6a21.29,21.29,0,0,1-3-2.35,9.55,9.55,0,0,1-2.35-3l-1.2-3.42.48-1.95-.47-.5-.09-.64,0-.65.24-.15.15.15.06-.38.69-4,2.63-3.15,2.75-3L86.91,126l3.49-2.35L93,126l3.11,1.47,3.51,1.81,3.55,1.73,3.81,1.05,3.59,1.77,4,.31,3.82,1.06,3.91.65,3.42.42,3.44-.2,3.43-.25,1.81-.28,1.87.15,3.76-1.14,3.82-1,3.46-1.91,3.12-2.42,2.46-3.76,1.89-3.94a12.81,12.81,0,0,0,.58-4.75A11.78,11.78,0,0,0,154.37,112.25ZM75.62,130.87a.62.62,0,0,1,0-.65.84.84,0,0,1,.26-.29l.37.48C75.56,130.92,75.92,129.89,75.62,130.87Zm19.82,18.95,1.55.59h1s.2-.4.34-.34a1.51,1.51,0,0,1,.36.33l3,.17,1.89.73-.46.63-.65,1.08-.87.74-.63.13-.4-.52-.2.23-.08.44-.29.19-.46-.15-.09-.38-.13-.26-.29,0-.58.22-2.24-.12-4.37-.51-.85,0-.23-2.9Zm-8.78,10.87c0-.47-.37-.22-.41-.55l.74-.09C87.12,160.51,87,160.72,86.66,160.69Zm1.65,1.15a1.28,1.28,0,0,1,.5-.93C89.13,161.34,88.82,162.11,88.31,161.84ZM88.1,154l.75-.09c.36.69.44,2-.88,1.84C87.55,155.17,88.42,154.93,88.1,154Zm.79,3.11c-.47,0-.37.31-.84.3-.11-.32-.51-.2-.37-.69C88.13,156.51,88.82,156.56,88.89,157.15Zm-.69,6.64a.56.56,0,0,0,.19.38.61.61,0,0,1-1.18-.13C87.69,164.05,87.71,163.65,88.2,163.79Zm-1.42-11.54c.06.46.47.41.46.95-.78.29-1-.15-1.31-.71C86.27,152.45,86.29,152.11,86.78,152.25Zm-.8,2.9c-.14.49.2.52.24.85C85.38,156.43,85,155.08,86,155.15ZM77.45,128c.1-.74.47-1,1-.78C78.06,127.53,78,128.23,77.45,128Zm1.49,1.16c-.32,0-.41-.26-.55-.44a.76.76,0,0,1,1-.52A.89.89,0,0,1,78.94,129.15Zm.19-2.12c.19-.63.79-.6,1-1.39A.85.85,0,1,1,79.13,127Zm.78-2.11c-.14-.18-.29-.25-.42-.16-.19-.24.37-.27.5-.48.19.25.41.27.61,0C80.68,124.54,80.09,124.79,79.91,124.92ZM109.2,80.83c.35-.87,1-.54,1.39-1.26C111.4,80.14,110.14,81.75,109.2,80.83Zm2.5-2.8c-.32,0-.49-.25-.66,0-.31-.49.75-.13.87-.69C112.05,77.53,111.77,77.8,111.7,78Zm1.91-2.38c-.7-.48-1-.91-.56-1.58A1.19,1.19,0,0,1,113.61,75.65ZM116.92,73c-.25.47-.67.27-.84.9l-.44-.31c.54-.36.94-.92,1.42-1l1,.7A1,1,0,0,1,116.92,73Zm2.64-.39c-.36.11-.25-.18-.44-.31l-.56-.39a8.33,8.33,0,0,1-2.23-1c-.14-.19.06-.33.49-.4l.53-.1.13.09.12.09c.48-.14,1.17.34,1.48.83.07,0,.3.12.32.22s.27.28.2.51S119.38,72.52,119.56,72.65Zm.29-2.49c-.45-.3-.32-.86-.51-1-.46-.41-.82.08-1.25-.5.06-.61,1.06-.28,1.49-.36.39.37,0,.71.35,1.08s.71-.06,1.27.6C121,70.89,120.28,70.74,119.85,70.16Zm-.07-3.83c1,.38.36,1.08,1,1.51-.22.31-.68-.37-1-.53C119.72,66.94,119.24,66.69,119.78,66.33Zm2-.39c-.73-.41-.21-.88.15-1.38C122.35,64.87,122.32,65.31,121.76,65.94Zm1.22.94c-.27-.28-.49-.63,0-1C123.3,66.18,123.53,66.51,123,66.88Zm.79-2.79c.12-.56.58-.15.7-.71.63.71,1.15.51,1.79,1.05A1.67,1.67,0,0,1,123.77,64.09ZM121.6,30.93c.1.64-.35.55-.53.28A.49.49,0,0,1,121.6,30.93ZM121,29c0,.53-.4.39-.77.31C120.49,29.09,120.51,28.63,121,29Zm-1.86,1.32c-.33.47-.73.47-1.3.58-.28.18-.46.3-.74.16C117.45,30.4,118.34,29.58,119.13,30.28Zm-3.7-.75c.1.65-.56.43-1.09.32A.86.86,0,0,1,115.43,29.53Zm-1.94,2.08.53.1c-.08.38-.26.49-.64.42ZM91.22,60.8l1.08-2.6,1.1-2.55,1.52-2.44,2-2,2-3,2-3.06,2.34-2.77,2.61-2.17,2.91-1.73,3-1.48,4.12-1.61,4.37-.74,3.66.65,3,1.95,2.2,2.9,1.5,3.47a30,30,0,0,1-.83,4.28,31.83,31.83,0,0,1-1.62,4l-2.61,4-3,3.69-2.79,3.87-3.23,3.5-3.25,3.39-3.14,3.5-2.4,2.62-1.94,3.08-3,2-2.12,2.9-2.7,2.32-3,2.63-2.61,3.11L89,94.92,86.41,98l-1,.2-1.12-4.06L84.47,90l-.1-4.12-.47-4.2.47-3.7.75-3.65L87,71l1-3.57s.61-1.64,1.46-3.64A9.92,9.92,0,0,1,91.22,60.8Zm-6,47.16c.16.27-.51,1.08-.86.5l.48-.54C85,108.11,85.08,108.14,85.24,108ZM83.85,63.41c.37-.13.4-1.23,1.21-.74C84.85,63.32,84.44,63.59,83.85,63.41Zm4.54-11.18-.26.79c-.53-.09-.74-.47-.55-1.05ZM87.4,55a2,2,0,0,1,.83.42c-.23.48-.65.27-1,.56C87,55.83,87.53,55.37,87.4,55Zm-.4,3.2c-.16.51.3.57-.1,1.08a2.53,2.53,0,0,1-1.6-1c.06-.22.31,0,.56,0A1.28,1.28,0,0,1,87,58.21Zm-1.57-3.1.8.25a4.89,4.89,0,0,1,.12,1.38A2.66,2.66,0,0,1,85.14,56Zm-1.33,5c.49.23.9-.28,1.1.34-.12.36-.56.46-1.22.26C84.08,60.47,83.81,60.31,84.1,60.16Zm.2,2.36c-.16.27-.41.27-.71-.06C83.86,62.14,84.1,62.14,84.3,62.52Zm-1.06,4.74c.68.13,1,.46.7,1.09-.35-.19-.41.27-.86-.11C83.25,67.74,82.76,67.5,83.24,67.26Zm-.15,1.45c-.19.34,0,.34-.11.84-.14.19.29.09.36-.12a1.1,1.1,0,0,1,.14,1.31,3.7,3.7,0,0,1-1-.49,1.83,1.83,0,0,1,0-.62c-.08,0-.13-.12-.18-.21a.68.68,0,0,1-.3-.57c-.15-.28,0-.62-.23-.78C82.29,67.68,82.79,68.39,83.09,68.71ZM81.5,105.47c.61.26.78.69.47,1.22a2.83,2.83,0,0,1-.86-.82C81.27,105.69,81.34,105.65,81.5,105.47Zm-7.75,12.19c-.22.13-.17,0-.3-.09,0-.22.08-.22,0-.39C73.79,117.18,73.79,117.48,73.75,117.66Zm.33.26c.13,0,.17.09.39,0A.21.21,0,1,1,74.08,117.92Zm.73-.57c-.39,0-.43.31-.73.13-.12-.47.43-.56.73-.43Zm.62.7c-.3-.13-.47-.18-.34-.52.21,0,.21.13.38.13C75.6,117.83,75.43,117.92,75.43,118.05Zm1-.74V117c.29,0,.47,0,.59.09A.42.42,0,0,1,76.46,117.31Zm2,.3v-.47c.38-.13.17.26.47.3A.54.54,0,0,1,78.45,117.61Zm-2-1.27-5.82.3,1.57-1,3-2.83,3.31-2.42.2-.1.88,1.61.42.65v1.19l1.63,2-2.57.18Zm5.08,8.48c.06,0,0-.11-.08-.23a.77.77,0,0,1,.88-.37c-.07,0,0,.11.08.23A.61.61,0,0,1,81.58,124.82Zm.77,1.61c.16-.41.43.06.61-.08C83.23,126.81,82.35,126.8,82.35,126.43ZM87,110.79c-.88.76-2-.28-2.76.18-.16-.87.52-.48,1-.47s1,.24,1.26.15c-.13-.36.58-.68.45-1C87.19,109.55,87.24,110.4,87,110.79Zm.52,1.45c0-.44.39-.84.89-.16C88.17,112.24,87.89,112.66,87.55,112.24Zm38.12-7c.11.22.12.29.22.5a.81.81,0,0,1-1.33,0A2.82,2.82,0,0,1,125.67,105.28Zm-3.7,2,.32.65c-.23,0-.29.11-.18.32C121.8,108.25,121.28,107.33,122,107.23Zm-2.34-1c.89.18.25.65.08,1s-.6.77-.63,1.08c.39,0,.43.78.82.81-.05.23-.87,0-1.15-.38C118.36,107.65,119.76,107.08,119.63,106.18Zm-2.45,2.46c.41.18.64.68-.19.87C116.94,109.21,116.65,108.79,117.18,108.64ZM136.38,130c-.09-.23,0-.49.3-.72l.33.4C136.77,129.9,136.57,129.78,136.38,130Zm-2.12-5.64-1.19.92-1.31.2-2.86.19s-2.42-.25-5.61-.53-3.84-.66-3.84-.66l-3.76-.41s-2-.68-3.79-1.41a31.48,31.48,0,0,0-3.32-1.17L105,120.27l-3.33-1.82-.16-.17,3.8-1.71,3.87-1.76,4-1.33,4.16-.82,3.73-.31,3.71-.26,3.69-.36,2.73-.34,1.43,0,1.26.24,4.76.69,3.63.82,1.86,3.11.57,2.33L143,121.49l-4.31,1.75Zm4.78,5.85c-.14-.17-.34-.3-.22-.5s.39-.5.44-.55c.43-.33,1.37.09,1.27-.51.44-.06.4.84,1,1.17C140.6,130.08,139.83,130.11,139,130.24Zm1.66-2.19c.44-.44.77.08,1.11.49A1.13,1.13,0,0,1,140.7,128.05Zm2.37,2c-.28-.46-.53-.16-.81-.62l1-.76C143.38,129.24,143.66,129.69,143.07,130.06Zm1.48-3.5c-.28.51-.06,1-.77,1.48-.43-.53-.79-.83-1.32-.51-.26-.67.66-.52,1.08-.85s.09-.85.46-1.24a.92.92,0,0,1,1.2.12C144.67,125.88,145,126.23,144.55,126.56Zm1.6.86c-.57-.32.38-.49.54-.91C147.45,127.07,146.57,127.58,146.15,127.42Zm.35-2.21c.3.24.22.5-.2.83A.43.43,0,0,1,146.5,125.21Zm0-1.08c-.3-.24-.23-.39-.31-.62.46-.27.93-.55,1.19.12C147.42,124.28,146.84,123.58,146.5,124.13Zm1.11-2.14c-.4-.36-.43-.63-.08-.81.43,0,.63.28.53.64C147.84,121.91,147.67,122,147.61,122Z" fill="#fff"/><path d="M56.8,117.1a.9.9,0,0,1-.22.11.28.28,0,0,0,.42.11C56.92,117.32,56.84,117.24,56.8,117.1Z" fill="#fff"/><path d="M48.31,118.68a.57.57,0,0,1-.22.11.27.27,0,0,0,.42.11C48.43,118.9,48.36,118.82,48.31,118.68Z" fill="#fff"/><path d="M57.64,117.73c.2-.08.08-.23,0-.37-.21,0-.09,0-.29.19a.26.26,0,0,0,.1.17C57.56,117.65,57.62,117.68,57.64,117.73Z" fill="#fff"/><path d="M58.54,117.17c-.34.12-.2.31,0,.55A.55.55,0,0,0,58.54,117.17Z" fill="#fff"/><path d="M50.54,118.27c-.35.12-.21.31-.06.55A.55.55,0,0,0,50.54,118.27Z" fill="#fff"/><path d="M59.7,117.84a.74.74,0,0,0-.15-.39c-.08.15-.25.25,0,.47C59.59,117.89,59.65,117.85,59.7,117.84Z" fill="#fff"/><path d="M58.92,117.1a.71.71,0,0,0,0,.69l.33-.18A.66.66,0,0,0,58.92,117.1Z" fill="#fff"/><path d="M56,117.44c-.14,0-.16.15,0,.34.13,0,.14-.12.18-.21A.33.33,0,0,1,56,117.44Z" fill="#fff"/><path d="M42.4,120.09c-.14,0-.16.15,0,.34.14,0,.14-.12.19-.21A.52.52,0,0,1,42.4,120.09Z" fill="#fff"/><path d="M48.88,119c-.14,0-.16.15,0,.33.14,0,.14-.11.19-.2A.7.7,0,0,1,48.88,119Z" fill="#fff"/><path d="M34.47,129.11c.28.14.23-.16.45-.1l-.15.48C34.46,129.45,34.36,129.32,34.47,129.11Z" fill="#fff"/><path d="M36.21,126c.29.13.24-.17.45-.1l-.14.47C36.2,126.34,36.1,126.21,36.21,126Z" fill="#fff"/><path d="M35,126.6a.84.84,0,0,1,.43.55C35.11,127.24,34.72,126.84,35,126.6Z" fill="#fff"/><path d="M38.83,132.89l-.15.48c-.52,0-1.31-.25-.89-1C38.28,132.25,38.19,132.85,38.83,132.89Z" fill="#fff"/><path d="M36.42,131.18c.13-.29-.09-.31,0-.6.23,0,.26-.26.52,0C37,130.88,36.8,131.29,36.42,131.18Z" fill="#fff"/><path d="M36.56,125.62a.36.36,0,0,0-.28,0c-.25-.26-.08-.83.39-.69C36.54,125.23,36.78,125.36,36.56,125.62Z" fill="#fff"/><path d="M38.94,122.35a.26.26,0,0,0-.14-.11.26.26,0,0,1,.47-.17C39.08,122.15,39.15,122.31,38.94,122.35Z" fill="#fff"/><path d="M40.69,133.44c-.3-.09-.38.18-.71,0,0-.56.37-.6.79-.62C40.71,133.07,40.91,133.18,40.69,133.44Z" fill="#fff"/><path d="M42.22,133.77c-.26-.22-.37,0-.59-.08C41.59,133.06,42.54,133.15,42.22,133.77Z" fill="#fff"/></svg>